# Peça 3: Bloco em U
v 0 0 0
v 3 0 0
v 3 2 0
v 2 2 0
v 2 1 0
v 1 1 0
v 1 2 0
v 0 2 0
v 0 0 2
v 3 0 2
v 3 2 2
v 2 2 2
v 2 1 2
v 1 1 2
v 1 2 2
v 0 2 2

f 1 2 3 4 5 6 7 8
f 16 15 14 13 12 11 10 9
f 1 9 10 2
f 2 10 11 3
f 3 11 12 4
f 4 12 13 5
f 5 13 14 6
f 6 14 15 7
f 7 15 16 8
f 8 16 9 1# Peça 3: Bloco em U
v 0 0 0
v 3 0 0
v 3 2 0
v 2 2 0
v 2 1 0
v 1 1 0
v 1 2 0
v 0 2 0
v 0 0 2
v 3 0 2
v 3 2 2
v 2 2 2
v 2 1 2
v 1 1 2
v 1 2 2
v 0 2 2

f 1 2 3 4 5 6 7 8
f 16 15 14 13 12 11 10 9
f 1 9 10 2
f 2 10 11 3
f 3 11 12 4
f 4 12 13 5
f 5 13 14 6
f 6 14 15 7
f 7 15 16 8
f 8 16 9 1